<?xml version="1.0" standalone="no"?>
<!DOCTYPE svg PUBLIC "-//W3C//DTD SVG 20010904//EN"
 "http://www.w3.org/TR/2001/REC-SVG-20010904/DTD/svg10.dtd">
<svg version="1.0" xmlns="http://www.w3.org/2000/svg"
 width="960.000000pt" height="960.000000pt" viewBox="0 0 960.000000 960.000000"
 preserveAspectRatio="xMidYMid meet">

<g transform="translate(0.000000,960.000000) scale(0.100000,-0.100000)"
fill="#000000" stroke="none">
<path d="M4520 9364 c-496 -42 -810 -106 -1240 -252 -951 -322 -1802 -1004
-2362 -1892 -92 -146 -283 -522 -352 -695 -159 -393 -260 -795 -313 -1240 -21
-184 -25 -750 -5 -940 60 -576 204 -1070 462 -1586 447 -892 1170 -1615 2060
-2058 470 -234 956 -378 1510 -448 204 -25 787 -25 1005 1 568 67 1065 212
1540 449 219 109 291 150 505 293 865 573 1501 1414 1825 2412 219 678 275
1464 154 2167 -113 651 -354 1243 -736 1805 -257 378 -572 715 -943 1011 -122
96 -431 306 -565 381 -550 312 -1128 498 -1775 574 -127 15 -662 27 -770 18z
m555 -54 c381 -26 761 -97 1110 -210 108 -35 270 -96 283 -106 5 -4 23 -169
29 -268 4 -78 -8 -289 -24 -388 l-5 -37 -77 -6 c-565 -47 -993 -139 -1404
-301 l-138 -55 -88 50 c-372 213 -882 342 -1388 352 -150 3 -140 -4 -147 103
-4 50 -8 202 -11 337 l-4 245 102 38 c513 190 1185 284 1762 246z m1565 -386
c87 -35 284 -134 410 -207 642 -367 1209 -919 1601 -1557 88 -144 229 -412
229 -436 0 -8 -26 -52 -57 -97 -32 -45 -57 -83 -55 -84 12 -14 -24 6 -101 53
-215 133 -519 264 -790 340 l-138 39 -72 105 c-253 373 -580 753 -838 974 -90
77 -251 199 -297 225 -10 6 -11 25 -2 97 12 93 29 324 37 482 2 50 6 92 7 92
1 0 31 -12 66 -26z m-3080 -645 c471 -42 860 -154 1187 -341 70 -40 72 -42 83
-92 48 -234 186 -1233 212 -1537 3 -35 0 -39 -172 -184 -583 -494 -1030 -917
-1241 -1172 l-26 -31 -159 48 c-429 130 -814 227 -1223 310 l-235 47 -13 39
c-123 345 -218 936 -249 1539 l-6 130 72 95 c212 277 524 606 730 770 183 146
380 266 562 345 l103 45 130 0 c72 0 182 -5 245 -11z m-2045 -1228 c33 -7 81
-16 106 -22 l46 -10 7 -142 c28 -557 125 -1165 240 -1504 15 -44 21 -75 15
-79 -19 -12 -226 -332 -287 -446 -157 -290 -268 -607 -322 -915 -11 -64 -21
-118 -23 -119 -12 -12 -263 -35 -386 -35 -153 0 -341 17 -341 31 0 4 -18 10
-40 14 -47 7 -70 35 -128 151 -58 119 -70 162 -91 360 -28 255 -34 449 -21
684 27 521 123 964 312 1448 64 165 213 471 250 516 19 23 39 31 123 48 55 11
107 24 115 30 19 12 345 4 425 -10z m6351 -165 c266 -70 579 -208 801 -354
l89 -59 48 -124 c115 -295 241 -673 275 -824 72 -327 113 -612 114 -805 0
-143 0 -146 -36 -244 -20 -54 -37 -105 -37 -113 0 -23 -73 -200 -144 -347
-137 -288 -316 -562 -477 -733 l-49 -51 -268 123 c-229 105 -728 322 -814 354
-24 9 -27 15 -33 88 -48 561 -165 1126 -359 1727 l-44 138 207 311 c224 336
347 528 485 757 49 80 94 155 102 167 14 23 13 23 140 -11z m-2597 -692 c521
-120 1082 -307 1554 -518 67 -30 56 -8 143 -296 166 -546 269 -1048 308 -1501
11 -125 12 -167 3 -179 -39 -51 -198 -231 -293 -331 -321 -337 -672 -638
-1001 -857 l-92 -62 -138 25 c-602 111 -1170 291 -1603 507 l-105 53 -62 255
c-116 473 -234 1015 -318 1453 l-26 138 24 32 c104 136 492 517 837 824 277
246 575 493 594 493 11 0 90 -16 175 -36z m4029 -1742 c2 -28 -6 -123 -17
-211 -120 -939 -513 -1789 -1149 -2489 l-85 -93 -43 42 -43 42 45 82 c24 45
41 85 37 88 -3 4 0 7 7 7 7 0 11 3 7 6 -3 4 20 59 53 124 168 334 293 695 350
1010 l23 125 62 70 c189 215 326 425 475 727 38 75 70 135 73 132 4 -4 102
221 131 304 32 86 36 93 54 90 13 -2 18 -15 20 -56z m-7929 -822 c205 -445
529 -841 987 -1208 l131 -105 12 -116 c39 -386 150 -778 301 -1058 38 -72 39
-73 17 -78 -57 -13 -193 -23 -209 -14 -9 5 -47 9 -85 9 -73 0 -236 23 -292 42
-80 26 -363 252 -580 463 -430 419 -771 913 -999 1450 -108 256 -131 335 -142
497 -5 79 -10 162 -10 186 l0 42 148 -7 c203 -11 431 -6 532 11 135 22 123 29
189 -114z m3116 -853 c374 -147 793 -266 1225 -347 90 -17 165 -31 166 -33 4
-4 81 -267 118 -402 50 -183 120 -465 161 -645 l34 -153 -36 -41 c-293 -324
-751 -546 -1333 -647 -152 -26 -242 -22 -493 21 -394 68 -732 174 -1062 336
-129 63 -324 173 -357 202 -24 20 -107 184 -161 317 -104 252 -169 535 -201
870 l-6 60 112 44 c321 124 751 317 1122 503 l250 125 160 -78 c89 -42 224
-102 301 -132z m3485 -1183 c0 -15 -134 -142 -275 -259 -670 -558 -1464 -904
-2328 -1015 -181 -23 -533 -43 -593 -34 -47 7 -48 9 -59 86 -7 54 -17 48 112
69 40 7 70 16 67 21 -3 4 3 8 13 8 39 0 304 71 433 116 326 113 587 271 799
483 l94 93 121 9 c462 33 862 131 1188 291 47 24 84 39 81 35 -8 -14 141 78
212 131 l70 51 32 -37 c18 -20 32 -42 33 -48z"/>
</g>
</svg>
